<svg id="visual" viewBox="0 0 960 540" width="960" height="540" xmlns="http://www.w3.org/2000/svg" xmlns:xlink="http://www.w3.org/1999/xlink" version="1.1"><path d="M0 93L13.3 89.8C26.7 86.7 53.3 80.3 80 78.7C106.7 77 133.3 80 160 79.5C186.7 79 213.3 75 240 77.8C266.7 80.7 293.3 90.3 320 94C346.7 97.7 373.3 95.3 400 89.3C426.7 83.3 453.3 73.7 480 69.7C506.7 65.7 533.3 67.3 560 72C586.7 76.7 613.3 84.3 640 85.8C666.7 87.3 693.3 82.7 720 79.8C746.7 77 773.3 76 800 77.8C826.7 79.7 853.3 84.3 880 87.7C906.7 91 933.3 93 946.7 94L960 95L960 0L946.7 0C933.3 0 906.7 0 880 0C853.3 0 826.7 0 800 0C773.3 0 746.7 0 720 0C693.3 0 666.7 0 640 0C613.3 0 586.7 0 560 0C533.3 0 506.7 0 480 0C453.3 0 426.7 0 400 0C373.3 0 346.7 0 320 0C293.3 0 266.7 0 240 0C213.3 0 186.7 0 160 0C133.3 0 106.7 0 80 0C53.3 0 26.7 0 13.3 0L0 0Z" fill="#fa7268"></path><path d="M0 83L13.3 81.8C26.7 80.7 53.3 78.3 80 73.7C106.7 69 133.3 62 160 59.3C186.7 56.7 213.3 58.3 240 61.7C266.7 65 293.3 70 320 71.7C346.7 73.3 373.3 71.7 400 70.2C426.7 68.7 453.3 67.3 480 66.3C506.7 65.3 533.3 64.7 560 65.3C586.7 66 613.3 68 640 68.2C666.7 68.3 693.3 66.7 720 63.3C746.7 60 773.3 55 800 52.8C826.7 50.7 853.3 51.3 880 51C906.7 50.7 933.3 49.3 946.7 48.7L960 48L960 0L946.7 0C933.3 0 906.7 0 880 0C853.3 0 826.7 0 800 0C773.3 0 746.7 0 720 0C693.3 0 666.7 0 640 0C613.3 0 586.7 0 560 0C533.3 0 506.7 0 480 0C453.3 0 426.7 0 400 0C373.3 0 346.7 0 320 0C293.3 0 266.7 0 240 0C213.3 0 186.7 0 160 0C133.3 0 106.7 0 80 0C53.3 0 26.7 0 13.3 0L0 0Z" fill="#ef5f67"></path><path d="M0 54L13.3 52.5C26.7 51 53.3 48 80 48.3C106.7 48.7 133.3 52.3 160 52.2C186.7 52 213.3 48 240 49C266.7 50 293.3 56 320 54.8C346.7 53.7 373.3 45.3 400 43.2C426.7 41 453.3 45 480 46.8C506.7 48.7 533.3 48.3 560 45.8C586.7 43.3 613.3 38.7 640 37C666.7 35.3 693.3 36.7 720 39.7C746.7 42.7 773.3 47.3 800 50.5C826.7 53.7 853.3 55.3 880 55.2C906.7 55 933.3 53 946.7 52L960 51L960 0L946.7 0C933.3 0 906.7 0 880 0C853.3 0 826.7 0 800 0C773.3 0 746.7 0 720 0C693.3 0 666.7 0 640 0C613.3 0 586.7 0 560 0C533.3 0 506.7 0 480 0C453.3 0 426.7 0 400 0C373.3 0 346.7 0 320 0C293.3 0 266.7 0 240 0C213.3 0 186.7 0 160 0C133.3 0 106.7 0 80 0C53.3 0 26.7 0 13.3 0L0 0Z" fill="#e34c67"></path><path d="M0 26L13.3 27.5C26.7 29 53.3 32 80 35.2C106.7 38.3 133.3 41.7 160 42.3C186.7 43 213.3 41 240 36.8C266.7 32.7 293.3 26.3 320 25C346.7 23.7 373.3 27.3 400 31C426.7 34.7 453.3 38.3 480 36.7C506.7 35 533.3 28 560 25.7C586.7 23.3 613.3 25.7 640 29.2C666.7 32.7 693.3 37.3 720 35.7C746.7 34 773.3 26 800 26.7C826.7 27.3 853.3 36.7 880 36.7C906.7 36.7 933.3 27.3 946.7 22.7L960 18L960 0L946.7 0C933.3 0 906.7 0 880 0C853.3 0 826.7 0 800 0C773.3 0 746.7 0 720 0C693.3 0 666.7 0 640 0C613.3 0 586.7 0 560 0C533.3 0 506.7 0 480 0C453.3 0 426.7 0 400 0C373.3 0 346.7 0 320 0C293.3 0 266.7 0 240 0C213.3 0 186.7 0 160 0C133.3 0 106.7 0 80 0C53.3 0 26.7 0 13.3 0L0 0Z" fill="#d53867"></path><path d="M0 29L13.3 27.3C26.7 25.7 53.3 22.3 80 22.2C106.7 22 133.3 25 160 25.8C186.7 26.7 213.3 25.3 240 24.7C266.7 24 293.3 24 320 22.5C346.7 21 373.3 18 400 16.2C426.7 14.3 453.3 13.7 480 16C506.7 18.3 533.3 23.7 560 24C586.7 24.3 613.3 19.7 640 19C666.7 18.3 693.3 21.7 720 22.5C746.7 23.3 773.3 21.7 800 19.8C826.7 18 853.3 16 880 14.3C906.7 12.7 933.3 11.3 946.7 10.7L960 10L960 0L946.7 0C933.3 0 906.7 0 880 0C853.3 0 826.7 0 800 0C773.3 0 746.7 0 720 0C693.3 0 666.7 0 640 0C613.3 0 586.7 0 560 0C533.3 0 506.7 0 480 0C453.3 0 426.7 0 400 0C373.3 0 346.7 0 320 0C293.3 0 266.7 0 240 0C213.3 0 186.7 0 160 0C133.3 0 106.7 0 80 0C53.3 0 26.7 0 13.3 0L0 0Z" fill="#c62368"></path></svg>