<svg id="visual" viewBox="0 0 960 540" width="960" height="540" xmlns="http://www.w3.org/2000/svg" xmlns:xlink="http://www.w3.org/1999/xlink" version="1.1"><path d="M0 218L22.8 209.3C45.7 200.7 91.3 183.3 137 172.7C182.7 162 228.3 158 274 164.7C319.7 171.3 365.3 188.7 411.2 187.3C457 186 503 166 548.8 167.8C594.7 169.7 640.3 193.3 686 193.3C731.7 193.3 777.3 169.7 823 167.3C868.7 165 914.3 184 937.2 193.5L960 203L960 0L937.2 0C914.3 0 868.7 0 823 0C777.3 0 731.7 0 686 0C640.3 0 594.7 0 548.8 0C503 0 457 0 411.2 0C365.3 0 319.7 0 274 0C228.3 0 182.7 0 137 0C91.3 0 45.7 0 22.8 0L0 0Z" fill="#fa7268"></path><path d="M0 107L22.8 114.7C45.7 122.3 91.3 137.7 137 145.5C182.7 153.3 228.3 153.7 274 149.2C319.7 144.7 365.3 135.3 411.2 138C457 140.7 503 155.3 548.8 164.3C594.7 173.3 640.3 176.7 686 166C731.7 155.3 777.3 130.7 823 126.8C868.7 123 914.3 140 937.2 148.5L960 157L960 0L937.2 0C914.3 0 868.7 0 823 0C777.3 0 731.7 0 686 0C640.3 0 594.7 0 548.8 0C503 0 457 0 411.2 0C365.3 0 319.7 0 274 0C228.3 0 182.7 0 137 0C91.3 0 45.7 0 22.8 0L0 0Z" fill="#ef5f67"></path><path d="M0 104L22.8 105.2C45.7 106.3 91.3 108.7 137 114.3C182.7 120 228.3 129 274 125.2C319.7 121.3 365.3 104.7 411.2 103.2C457 101.7 503 115.3 548.8 123C594.7 130.7 640.3 132.3 686 131.3C731.7 130.3 777.3 126.7 823 118.3C868.7 110 914.3 97 937.2 90.5L960 84L960 0L937.2 0C914.3 0 868.7 0 823 0C777.3 0 731.7 0 686 0C640.3 0 594.7 0 548.8 0C503 0 457 0 411.2 0C365.3 0 319.7 0 274 0C228.3 0 182.7 0 137 0C91.3 0 45.7 0 22.8 0L0 0Z" fill="#e34c67"></path><path d="M0 95L22.8 89.3C45.7 83.7 91.3 72.3 137 67.7C182.7 63 228.3 65 274 65.3C319.7 65.7 365.3 64.3 411.2 61.5C457 58.7 503 54.3 548.8 54C594.7 53.7 640.3 57.3 686 61.3C731.7 65.3 777.3 69.7 823 70.2C868.7 70.7 914.3 67.3 937.2 65.7L960 64L960 0L937.2 0C914.3 0 868.7 0 823 0C777.3 0 731.7 0 686 0C640.3 0 594.7 0 548.8 0C503 0 457 0 411.2 0C365.3 0 319.7 0 274 0C228.3 0 182.7 0 137 0C91.3 0 45.7 0 22.8 0L0 0Z" fill="#d53867"></path><path d="M0 45L22.8 46.3C45.7 47.7 91.3 50.3 137 53.3C182.7 56.3 228.3 59.7 274 55.5C319.7 51.3 365.3 39.7 411.2 34C457 28.3 503 28.7 548.8 29.3C594.7 30 640.3 31 686 35.5C731.7 40 777.3 48 823 48C868.7 48 914.3 40 937.2 36L960 32L960 0L937.2 0C914.3 0 868.7 0 823 0C777.3 0 731.7 0 686 0C640.3 0 594.7 0 548.8 0C503 0 457 0 411.2 0C365.3 0 319.7 0 274 0C228.3 0 182.7 0 137 0C91.3 0 45.7 0 22.8 0L0 0Z" fill="#c62368"></path></svg>